<svg width="28" height="28" viewBox="0 0 28 28" fill="none" xmlns="http://www.w3.org/2000/svg">
<circle cx="14" cy="14" r="13.5" stroke="#9B9B9B"/>
<path fill-rule="evenodd" clip-rule="evenodd" d="M19.1806 8.8803C19.2285 8.83241 19.2665 8.77557 19.2924 8.713C19.3183 8.65044 19.3317 8.58338 19.3317 8.51567C19.3317 8.44795 19.3183 8.38089 19.2924 8.31833C19.2665 8.25577 19.2285 8.19892 19.1806 8.15104C19.1327 8.10315 19.0759 8.06517 19.0133 8.03925C18.9508 8.01334 18.8837 8 18.816 8C18.7483 8 18.6812 8.01334 18.6186 8.03925C18.5561 8.06517 18.4992 8.10315 18.4514 8.15104L13.6658 12.9376L8.8803 8.15104C8.83241 8.10315 8.77557 8.06517 8.713 8.03925C8.65044 8.01334 8.58338 8 8.51567 8C8.44795 8 8.38089 8.01334 8.31833 8.03925C8.25577 8.06517 8.19892 8.10315 8.15104 8.15104C8.10315 8.19892 8.06517 8.25577 8.03925 8.31833C8.01334 8.38089 8 8.44795 8 8.51567C8 8.58338 8.01334 8.65044 8.03925 8.713C8.06517 8.77557 8.10315 8.83241 8.15104 8.8803L12.9376 13.6658L8.15104 18.4514C8.05433 18.5481 8 18.6792 8 18.816C8 18.9527 8.05433 19.0839 8.15104 19.1806C8.24774 19.2773 8.3789 19.3317 8.51567 19.3317C8.65243 19.3317 8.78359 19.2773 8.8803 19.1806L13.6658 14.3941L18.4514 19.1806C18.5481 19.2773 18.6792 19.3317 18.816 19.3317C18.9527 19.3317 19.0839 19.2773 19.1806 19.1806C19.2773 19.0839 19.3317 18.9527 19.3317 18.816C19.3317 18.6792 19.2773 18.5481 19.1806 18.4514L14.3941 13.6658L19.1806 8.8803Z" fill="#909294"/>
</svg>